<svg xmlns="http://www.w3.org/2000/svg" xmlns:xlink="http://www.w3.org/1999/xlink" viewBox="0 0 30 30" fill="#FFFFFF">
  <path d="M15 3C8.373 3 3 8.373 3 15C3 21.627 8.373 27 15 27C21.627 27 27 21.627 27 15C27 8.373 21.627 3 15 3 z M 12 10L16.171875 10C18.229875 10 19.636719 11.378031 19.636719 13.457031C19.636719 15.515031 18.175359 17 16.068359 17L14 17L14 18L16 18L16 19L14 19L14 21L12 21L12 19L10 19L10 18L12 18L12 17L10 17L10 16L12 16L12 10 z M 14 11.71875L14 15.197266L15.611328 15.197266C16.810328 15.197266 17.509766 14.587844 17.509766 13.464844C17.508766 12.327844 16.823188 11.71875 15.617188 11.71875L14 11.71875 z" fill="#FFFFFF" />
</svg>